<?xml version="1.0" standalone="no"?>
<!DOCTYPE svg PUBLIC "-//W3C//DTD SVG 20010904//EN"
 "http://www.w3.org/TR/2001/REC-SVG-20010904/DTD/svg10.dtd">
<svg version="1.0" xmlns="http://www.w3.org/2000/svg"
 width="1000.000000pt" height="1000.000000pt" viewBox="0 0 1000.000000 1000.000000"
 preserveAspectRatio="xMidYMid meet">
<metadata>
Created by potrace 1.11, written by Peter Selinger 2001-2013
</metadata>
<g transform="translate(0.000000,1000.000000) scale(0.100000,-0.100000)"
fill="#000000" stroke="none">
<path d="M3065 9043 c-386 -82 -646 -397 -729 -885 -64 -370 -38 -803 80
-1354 39 -184 39 -184 20 -184 -8 0 -101 -29 -208 -64 -784 -258 -1306 -612
-1511 -1021 -52 -105 -79 -213 -84 -340 -9 -202 36 -354 157 -538 241 -365
754 -683 1475 -913 99 -31 182 -58 184 -60 2 -2 -12 -79 -32 -171 -83 -379
-111 -609 -111 -928 0 -243 13 -379 50 -530 105 -422 314 -669 651 -771 79
-25 104 -27 248 -28 138 0 175 3 270 26 385 91 843 361 1279 754 54 49 120
109 147 132 l49 44 49 -44 c27 -23 93 -83 147 -132 436 -393 894 -663 1279
-754 95 -23 132 -26 270 -26 144 1 169 3 248 28 337 102 546 349 651 771 37
151 50 287 50 530 0 319 -28 549 -111 928 -20 92 -34 169 -32 170 2 2 103 36
224 76 926 303 1477 735 1582 1239 23 115 14 290 -22 402 -54 167 -144 310
-290 456 -278 280 -698 510 -1273 700 -107 35 -200 64 -208 64 -19 0 -19 0 20
184 84 392 110 608 110 926 -1 264 -13 378 -58 560 -174 685 -718 938 -1419
659 -341 -136 -703 -381 -1103 -747 l-114 -104 -114 104 c-535 490 -1010 768
-1438 843 -105 19 -292 18 -383 -2z m368 -374 c335 -68 756 -328 1200 -741
l107 -100 -57 -62 c-162 -173 -397 -461 -580 -711 l-110 -150 -189 -21 c-277
-32 -520 -69 -769 -119 -121 -24 -220 -43 -221 -42 0 1 -17 76 -37 167 -74
341 -101 572 -101 855 1 380 68 631 209 784 138 148 303 190 548 140z m3442 6
c96 -25 145 -54 221 -129 158 -157 227 -401 228 -801 0 -214 -9 -330 -45 -560
-17 -107 -87 -453 -94 -463 -1 -1 -53 9 -116 22 -256 56 -646 117 -943 148
l-119 13 -110 150 c-183 250 -418 538 -580 711 l-57 62 107 100 c596 555 1164
836 1508 747z m-1746 -1261 c101 -115 381 -457 381 -466 0 -1 -229 -3 -510 -3
-280 0 -510 1 -510 3 0 2 44 58 97 125 204 257 399 480 417 474 6 -2 62 -62
125 -133z m256 -844 c132 -5 280 -12 329 -16 l89 -7 112 -171 c139 -213 254
-402 377 -621 123 -219 308 -578 308 -596 0 -8 -41 -95 -91 -194 -182 -359
-371 -687 -581 -1006 l-129 -197 -147 -8 c-81 -5 -374 -9 -652 -9 -278 0 -571
4 -652 9 l-147 8 -129 197 c-210 319 -399 647 -581 1006 -50 99 -91 186 -91
194 0 8 48 107 106 220 191 368 376 688 579 997 l113 172 108 7 c330 23 735
29 1079 15z m-1681 -97 c-47 -72 -168 -271 -236 -388 -67 -116 -100 -175 -236
-424 l-35 -64 -29 69 c-39 92 -177 464 -218 588 -25 77 -30 100 -20 106 28 17
651 129 774 139 18 1 18 0 0 -26z m2826 -9 c197 -30 523 -93 540 -104 10 -6 5
-29 -20 -106 -41 -124 -179 -496 -218 -588 l-29 -69 -36 64 c-19 35 -74 136
-122 224 -91 166 -183 322 -298 508 l-67 108 47 -6 c27 -4 118 -17 203 -31z
m-3900 -416 c76 -227 207 -561 300 -768 29 -66 49 -124 46 -135 -2 -11 -42
-108 -89 -215 -103 -238 -196 -479 -272 -707 -39 -117 -63 -173 -72 -173 -24
0 -350 109 -483 162 -557 221 -927 502 -1033 786 -17 45 -22 79 -22 162 1 95
4 112 32 177 119 277 467 540 1000 755 101 40 489 175 513 177 3 1 39 -99 80
-221z m5010 160 c708 -228 1180 -539 1324 -873 27 -63 30 -80 31 -175 0 -83
-5 -117 -22 -162 -106 -284 -476 -565 -1033 -786 -134 -53 -459 -162 -483
-162 -10 0 -29 45 -61 142 -75 227 -179 500 -277 725 -50 114 -93 217 -95 228
-3 11 17 69 46 135 93 206 224 541 300 768 68 202 77 221 95 216 11 -4 90 -29
175 -56z m-4416 -1535 c54 -116 349 -633 426 -748 14 -22 37 -57 49 -77 l23
-38 -29 5 c-15 2 -109 16 -208 31 -185 27 -552 98 -562 108 -13 13 258 756
277 756 3 0 14 -17 24 -37z m3661 -160 c89 -227 200 -551 192 -559 -10 -10
-377 -81 -562 -108 -99 -15 -193 -29 -208 -31 l-29 -5 23 38 c12 20 35 55 49
77 77 115 372 632 426 748 10 20 21 37 24 37 4 0 42 -89 85 -197z m-3943 -948
c255 -55 711 -124 985 -150 41 -4 74 -12 76 -19 3 -7 72 -102 155 -212 155
-207 368 -466 503 -615 l79 -86 -103 -95 c-368 -339 -706 -571 -995 -683 -480
-185 -787 -56 -913 383 -40 139 -53 268 -53 497 1 297 31 518 131 983 3 12 9
22 13 22 5 0 60 -11 122 -25z m4277 -122 c76 -349 104 -586 105 -868 0 -339
-43 -540 -157 -722 -276 -443 -965 -239 -1804 535 l-103 95 79 86 c135 148
347 408 501 613 82 108 152 204 157 211 6 11 52 19 163 31 287 31 751 105 935
150 98 23 88 33 124 -131z m-1709 -80 c0 -1 -53 -69 -118 -150 -147 -184 -380
-453 -392 -453 -12 0 -245 269 -392 453 -65 81 -118 149 -118 150 0 1 230 2
510 2 281 0 510 -1 510 -2z"/>
<path d="M4862 5930 c-79 -15 -219 -70 -287 -115 -80 -52 -192 -166 -238 -242
-205 -337 -136 -770 161 -1018 79 -66 219 -137 317 -161 94 -23 276 -23 370 0
281 68 508 298 576 583 17 73 20 109 16 208 -2 66 -12 147 -21 180 -40 146
-147 308 -264 400 -83 66 -146 100 -252 135 -79 27 -112 33 -210 36 -63 1
-139 -1 -168 -6z"/>
</g>
</svg>
